<?xml version="1.0" standalone="no"?><!DOCTYPE svg PUBLIC "-//W3C//DTD SVG 1.1//EN" "http://www.w3.org/Graphics/SVG/1.1/DTD/svg11.dtd"><svg t="1748850810628" class="icon" viewBox="0 0 1024 1024" version="1.1" xmlns="http://www.w3.org/2000/svg" p-id="896" xmlns:xlink="http://www.w3.org/1999/xlink" width="200" height="200"><path d="M512 100.5568A411.4432 411.4432 0 1 0 923.4432 512 411.904 411.904 0 0 0 512 100.5568z m0 751.2064A339.7632 339.7632 0 1 1 851.7632 512 340.1728 340.1728 0 0 1 512 851.7632z" fill="#2c2c2c" p-id="897"></path><path d="M684.1344 471.04h-134.4V336.5888a35.84 35.84 0 0 0-71.68 0V471.04H343.6032a35.84 35.84 0 0 0 0 71.68h134.4512v134.4512a35.84 35.84 0 0 0 71.68 0V542.72h134.4a35.84 35.84 0 0 0 0-71.68z" fill="#2c2c2c" p-id="898"></path></svg>